FFmpeg version SVN-r25716, Copyright (c) 2000-2010 the FFmpeg developers  built on Nov 10 2010 12:23:18 with gcc 4.1.2 20080704 (Red Hat 4.1.2-48)  configuration: --enable-libmp3lame --enable-shared --disable-mmx --arch=x86_64  libavutil     50.33. 0 / 50.33. 0  libavcore      0.12. 1 /  0.12. 1  libavcodec    52.94. 4 / 52.94. 4  libavformat   52.84. 0 / 52.84. 0  libavdevice   52. 2. 2 / 52. 2. 2  libavfilter    1.59. 0 /  1.59. 0  libswscale     0.12. 0 /  0.12. 0Input #0, avi, from '/RAID10/data/converted_video_files/47677.avi':  Duration: 00:00:11.50, start: 0.000000, bitrate: 283116 kb/s    Stream #0.0: Video: msvideo1, rgb555le, 1024x1024, 30 tbr, 30 tbn, 30 tbc[buffer @ 0xfa5a3d0] w:1024 h:1024 pixfmt:rgb555le[ffsink @ 0xfa78d40] auto-inserting filter 'auto-inserted scaler 0' between the filter 'src' and the filter 'out'[scale @ 0xfa79030] w:1024 h:1024 fmt:rgb555le -> w:1024 h:1024 fmt:yuv420p flags:0x4Output #0, flv, to '/RAID10/data/converted_video_files/47677.flv':  Metadata:    encoder         : Lavf52.84.0    Stream #0.0: Video: flv, yuv420p, 1024x1024, q=2-31, 600 kb/s, 1k tbn, 24 tbcStream mapping:  Stream #0.0 -> #0.0Press [q] to stop encodingframe=    7 fps=  0 q=11.5 size=     938kB time=0.29 bitrate=26323.6kbits/s dup=0 drop=1    frame=   15 fps= 14 q=31.0 size=    1005kB time=0.62 bitrate=13178.9kbits/s dup=0 drop=3    frame=   24 fps= 15 q=31.0 size=    1022kB time=1.00 bitrate=8370.2kbits/s dup=0 drop=6    frame=   33 fps= 15 q=31.0 size=    1062kB time=1.38 bitrate=6326.4kbits/s dup=0 drop=8    frame=   40 fps= 15 q=31.0 size=    1097kB time=1.67 bitrate=5392.8kbits/s dup=0 drop=9    frame=   48 fps= 15 q=31.0 size=    1109kB time=2.00 bitrate=4542.0kbits/s dup=0 drop=12    frame=   57 fps= 15 q=31.0 size=    1145kB time=2.38 bitrate=3948.0kbits/s dup=0 drop=14    frame=   66 fps= 16 q=31.0 size=    1180kB time=2.75 bitrate=3515.0kbits/s dup=0 drop=16    frame=   76 fps= 16 q=31.0 size=    1218kB time=3.17 bitrate=3150.7kbits/s dup=0 drop=18    frame=   84 fps= 16 q=31.0 size=    1227kB time=3.50 bitrate=2871.1kbits/s dup=0 drop=21    frame=   93 fps= 16 q=31.0 size=    1261kB time=3.88 bitrate=2665.0kbits/s dup=0 drop=23    frame=  102 fps= 16 q=31.0 size=    1296kB time=4.25 bitrate=2498.4kbits/s dup=0 drop=25    frame=  110 fps= 16 q=24.8 size=    1331kB time=4.58 bitrate=2379.9kbits/s dup=0 drop=27    frame=  118 fps= 16 q=31.0 size=    1348kB time=4.92 bitrate=2245.2kbits/s dup=0 drop=29    frame=  127 fps= 16 q=31.0 size=    1391kB time=5.29 bitrate=2153.0kbits/s dup=0 drop=31    frame=  136 fps= 16 q=31.0 size=    1425kB time=5.67 bitrate=2060.1kbits/s dup=0 drop=33    frame=  145 fps= 16 q=31.0 size=    1443kB time=6.04 bitrate=1956.0kbits/s dup=0 drop=36    frame=  154 fps= 16 q=31.0 size=    1476kB time=6.42 bitrate=1884.6kbits/s dup=0 drop=38    frame=  158 fps= 16 q=24.8 size=    1506kB time=6.58 bitrate=1873.9kbits/s dup=0 drop=39    frame=  167 fps= 16 q=31.0 size=    1519kB time=6.96 bitrate=1788.2kbits/s dup=0 drop=41    frame=  176 fps= 16 q=31.0 size=    1568kB time=7.33 bitrate=1751.4kbits/s dup=0 drop=43    frame=  183 fps= 16 q=31.0 size=    1601kB time=7.62 bitrate=1720.5kbits/s dup=0 drop=45    frame=  191 fps= 16 q=31.0 size=    1611kB time=7.96 bitrate=1658.3kbits/s dup=0 drop=48    frame=  201 fps= 16 q=31.0 size=    1662kB time=8.38 bitrate=1625.6kbits/s dup=0 drop=50    frame=  209 fps= 16 q=31.0 size=    1730kB time=8.71 bitrate=1627.1kbits/s dup=0 drop=52    frame=  218 fps= 16 q=24.8 size=    1778kB time=9.08 bitrate=1603.4kbits/s dup=0 drop=54    frame=  227 fps= 16 q=31.0 size=    1792kB time=9.46 bitrate=1551.9kbits/s dup=0 drop=56    frame=  233 fps= 16 q=31.0 size=    1825kB time=9.71 bitrate=1540.2kbits/s dup=0 drop=58    frame=  242 fps= 16 q=24.8 size=    1862kB time=10.08 bitrate=1512.6kbits/s dup=0 drop=60    frame=  250 fps= 16 q=31.0 size=    1869kB time=10.42 bitrate=1470.0kbits/s dup=0 drop=62    frame=  259 fps= 16 q=31.0 size=    1905kB time=10.79 bitrate=1445.8kbits/s dup=0 drop=64    frame=  268 fps= 16 q=31.0 size=    1959kB time=11.17 bitrate=1437.0kbits/s dup=0 drop=66    frame=  276 fps= 16 q=31.0 Lsize=    1969kB time=11.50 bitrate=1402.4kbits/s dup=0 drop=69    video:1964kB audio:0kB global headers:0kB muxing overhead 0.229992%